{
	"asset":{
		"generator":"Khronos glTF Blender I/O v4.2.57",
		"version":"2.0"
	},
	"scene":0,
	"scenes":[
		{
			"name":"Scene",
			"nodes":[
				0
			]
		}
	],
	"nodes":[
		{
			"mesh":0,
			"name":"Grid",
			"scale":[
				9.764728546142578,
				9.764728546142578,
				9.764728546142578
			]
		}
	],
	"meshes":[
		{
			"name":"Grid",
			"primitives":[
				{
					"attributes":{
						"POSITION":0,
						"NORMAL":1,
						"TEXCOORD_0":2
					},
					"indices":3
				}
			]
		}
	],
	"accessors":[
		{
			"bufferView":0,
			"componentType":5126,
			"count":1770,
			"max":[
				2.055708885192871,
				0.2910659909248352,
				2.055708885192871
			],
			"min":[
				-2.055708885192871,
				-0.054588623344898224,
				-2.055708885192871
			],
			"type":"VEC3"
		},
		{
			"bufferView":1,
			"componentType":5126,
			"count":1770,
			"type":"VEC3"
		},
		{
			"bufferView":2,
			"componentType":5126,
			"count":1770,
			"type":"VEC2"
		},
		{
			"bufferView":3,
			"componentType":5123,
			"count":9600,
			"type":"SCALAR"
		}
	],
	"bufferViews":[
		{
			"buffer":0,
			"byteLength":21240,
			"byteOffset":0,
			"target":34962
		},
		{
			"buffer":0,
			"byteLength":21240,
			"byteOffset":21240,
			"target":34962
		},
		{
			"buffer":0,
			"byteLength":14160,
			"byteOffset":42480,
			"target":34962
		},
		{
			"buffer":0,
			"byteLength":19200,
			"byteOffset":56640,
			"target":34963
		}
	],
	"buffers":[
		{
			"byteLength":75840,
			"uri":"terrain.bin"
		}
	]
}
